<?xml version="1.0" encoding="UTF-8"?>
<svg id="Layer_1" data-name="Layer 1" xmlns="http://www.w3.org/2000/svg" viewBox="0 0 1080 1080">
  <defs>
    <style>
      .cls-1 {
        fill: #04cda9;
      }

      .cls-2 {
        fill: #39aece;
      }

      .cls-3 {
        fill: #09ccca;
      }

      .cls-4 {
        fill: #4d90ce;
      }

      .cls-5 {
        fill: #5a70d2;
      }
    </style>
  </defs>
  <path class="cls-1" d="M1007.2218,188.6895c0,33.7514-14.2963,64.1637-37.1638,85.5117-20.8972,19.5086-48.9521,31.4475-79.7954,31.4475-64.5948,0-116.9592-52.3644-116.9592-116.9592s52.3644-116.9592,116.9592-116.9592,116.9592,52.3644,116.9592,116.9592Z"/>
  <circle class="cls-1" cx="188.8528" cy="188.655" r="116.9592"/>
  <circle class="cls-1" cx="188.9603" cy="890.6213" r="116.9592"/>
  <circle class="cls-5" cx="890.4238" cy="890.1338" r="116.9592"/>
  <path class="cls-1" d="M504.6657,890.4124c0-40.1695,6.0882-79.4086,18.0836-117.0881H190.5277v234.1718h332.2202c-11.9945-37.6781-18.0822-76.9158-18.0822-117.0837Z"/>
  <g>
    <path class="cls-1" d="M519.9906,724.6105c201.7511-201.8298,450.1038-450.308,450.0331-450.3787l-164.9741-164.9741c-.1191-.1191-.3103-.1208-.4294-.0017-10.8581,10.8619-432.5087,432.6641-615.114,615.3545h330.4843Z"/>
    <path class="cls-1" d="M140.8168,773.3243c-21.6377,21.6496-34.1585,34.1795-34.2219,34.2485-4.3444,4.7225-7.0294,9.6152-3.2619,13.3828l162.0564,157.916c.1195.1164.3104.1152.4283-.0028,0,0,89.9112-89.9359,205.4773-205.5445H140.8168Z"/>
  </g>
  <g>
    <polygon class="cls-1" points="773.222 71.6958 188.8528 71.6958 188.8528 305.6141 539.3036 305.6141 773.222 71.6958"/>
    <polygon class="cls-1" points="842.1137 71.6958 608.1953 305.6141 884.9651 305.6141 884.9651 71.6958 842.1137 71.6958"/>
  </g>
  <path class="cls-1" d="M773.4646,887.0201c-.029,1.0692-.0461,2.1413-.0461,3.2174s.017,2.1482.0461,3.2174v-6.4348Z"/>
  <path class="cls-4" d="M722.5216,1007.1427l50.6046.0079c-29.9051-29.9792-48.4215-71.3239-48.4215-116.9131s18.5164-86.9339,48.4216-116.9131h-50.5991c-23.1755,33.1632-36.7935,73.4749-36.7935,116.9131s13.6158,83.7436,36.788,116.9052Z"/>
  <path class="cls-2" d="M643.8819,1007.1304l43.8451.0068c-20.3599-35.154-31.2216-75.1893-31.2216-116.8998s10.8645-81.7559,31.2294-116.9131h-43.8434c-16.888,35.4549-26.357,75.0971-26.357,116.9131s9.4655,81.4432,26.3475,116.893Z"/>
  <path class="cls-3" d="M580.4312,1007.1205l41.8532.0065c-15.879-36.3874-24.2356-75.9943-24.2356-116.8896s8.3601-80.5193,24.2457-116.9131h-41.8519c-13.7907,36.3684-21.3649,75.77-21.3649,116.9131s7.57,80.5231,21.3535,116.8831Z"/>
  <path class="cls-1" d="M549.335,890.2374c0-40.5183,7.0485-79.949,20.5322-116.9131h-166.0978v233.7687l166.086.0259c-13.476-36.955-20.5204-76.3747-20.5204-116.8814Z"/>
</svg>